<svg width="22" height="36" viewBox="0 0 22 36" fill="none" xmlns="http://www.w3.org/2000/svg">
<path d="M0 25.1511C0.380571 29.4377 3.89057 32.4797 9.234 32.8731V36H11.916V32.8731C17.7531 32.4129 21.3737 29.1754 21.3737 24.3874C21.3737 20.2989 18.9386 17.9331 13.7726 16.6011L11.916 16.1203V6.34371C14.8011 6.62657 16.7477 8.17971 17.2389 10.4991H21.0189C20.592 6.38486 17.0589 3.43286 11.916 3.10629V0H9.234V3.17057C4.248 3.762 0.825429 6.95571 0.825429 11.286C0.825429 15.0249 3.30943 17.6709 7.668 18.7869L9.23657 19.2034V29.5689C6.282 29.1317 4.248 27.5117 3.75686 25.1511H0ZM8.71971 15.2871C6.03771 14.6109 4.60543 13.1657 4.60543 11.1317C4.60543 8.70429 6.41571 6.912 9.234 6.43114V15.4183L8.71971 15.2871ZM12.8109 20.1009C16.1203 20.9314 17.5731 22.3097 17.5731 24.6497C17.5731 27.4706 15.4491 29.3503 11.916 29.6357V19.8771L12.8109 20.1009Z" fill="#00D1FF"/>
</svg>
