<svg width="6" height="22" viewBox="0 0 6 22" fill="none" xmlns="http://www.w3.org/2000/svg">
<path d="M5.53847 19.4615C5.53847 20.1348 5.27103 20.7804 4.79497 21.2565C4.31892 21.7326 3.67325 22 3.00001 22C2.32677 22 1.6811 21.7326 1.20505 21.2565C0.728992 20.7804 0.461548 20.1348 0.461548 19.4615C0.461548 18.7883 0.728992 18.1426 1.20505 17.6666C1.6811 17.1905 2.32677 16.9231 3.00001 16.9231C3.67325 16.9231 4.31892 17.1905 4.79497 17.6666C5.27103 18.1426 5.53847 18.7883 5.53847 19.4615ZM5.53847 11C5.53847 11.6732 5.27103 12.3189 4.79497 12.795C4.31892 13.271 3.67325 13.5385 3.00001 13.5385C2.32677 13.5385 1.6811 13.271 1.20505 12.795C0.728992 12.3189 0.461548 11.6732 0.461548 11C0.461548 10.3268 0.728992 9.68109 1.20505 9.20504C1.6811 8.72898 2.32677 8.46154 3.00001 8.46154C3.67325 8.46154 4.31892 8.72898 4.79497 9.20504C5.27103 9.68109 5.53847 10.3268 5.53847 11ZM5.53847 2.53846C5.53847 3.2117 5.27103 3.85737 4.79497 4.33343C4.31892 4.80948 3.67325 5.07692 3.00001 5.07692C2.32677 5.07692 1.6811 4.80948 1.20505 4.33343C0.728992 3.85737 0.461548 3.2117 0.461548 2.53846C0.461548 1.86522 0.728992 1.21955 1.20505 0.743498C1.6811 0.267444 2.32677 0 3.00001 0C3.67325 0 4.31892 0.267444 4.79497 0.743498C5.27103 1.21955 5.53847 1.86522 5.53847 2.53846Z" fill="white"/>
</svg>
