<svg width="12" height="14" viewBox="0 0 12 14" fill="none" xmlns="http://www.w3.org/2000/svg">
<mask id="path-1-inside-1_14_136" fill="white">
<path fill-rule="evenodd" clip-rule="evenodd" d="M9.6112 4.28478C9.52799 4.21197 9.40317 4.24837 9.36156 4.35239C9.14172 5.0177 8.7061 5.5906 8.12376 5.98026C7.9906 6.06316 7.85154 6.13617 7.70769 6.1987C7.67648 6.2143 7.63487 6.1831 7.64007 6.14669C7.65757 5.99101 7.67144 5.83494 7.68168 5.67861V5.6266C7.87931 2.55289 6.41787 0.878211 5.29448 0.2125C5.1618 0.135015 5.0246 0.0655464 4.88361 0.00446515C4.83161 -0.0215392 4.7744 0.0720763 4.7796 0.129286C4.78079 0.256155 4.77385 0.382971 4.75879 0.508949V0.51415C4.61837 1.80917 3.6042 2.74532 2.56923 3.70748C1.72149 4.48761 0.858143 5.29375 0.431672 6.31832C0.148671 6.98642 0.00191194 7.7043 0 8.42987C0.00638873 9.77277 0.489302 11.0698 1.36271 12.0899C2.23612 13.11 3.4433 13.7869 4.7692 14C5.26328 13.6931 5.46611 13.0534 5.46091 12.4189C5.46091 12.2369 5.44011 12.0549 5.4037 11.8832C5.54933 11.8832 5.75736 11.9561 5.96019 12.0965C6.26262 12.2998 6.4939 12.5927 6.62166 12.934C6.74942 13.2753 6.76727 13.648 6.67271 14C7.99906 13.7879 9.20683 13.1112 10.0804 12.0909C10.954 11.0706 11.4366 9.77306 11.4419 8.42987C11.4419 6.7916 10.7346 5.31975 9.6112 4.28478ZM7.23961 13.3343C9.37196 12.6946 10.9218 10.7339 10.9218 8.42987C10.9218 7.12965 10.4329 5.94386 9.6216 5.03891C9.27178 5.77168 8.66728 6.35215 7.92092 6.67198M7.24481 13.3343C7.21316 12.9692 7.09226 12.6174 6.89274 12.3099C6.69323 12.0025 6.42121 11.7488 6.10062 11.5712C5.89258 11.4516 5.64294 11.3632 5.4037 11.3632H4.7692L4.89402 11.9873C4.96163 12.3097 4.95643 12.6634 4.87841 12.9546C4.8264 13.1679 4.73799 13.3343 4.62877 13.4435C3.47398 13.2053 2.43591 12.578 1.68807 11.6664C0.940236 10.7548 0.527938 9.61415 0.520087 8.43507C0.520087 7.75896 0.66051 7.11925 0.910152 6.52635C1.12859 6.00627 1.48225 5.53299 1.92432 5.06491C2.23637 4.73205 2.56403 4.4252 2.91249 4.10795L3.36496 3.68148C4.1815 2.90135 5.02924 2.0068 5.24247 0.800198C6.23064 1.49711 7.47365 3.10938 7.11999 6.08428C7.07318 6.48995 7.48405 6.87481 7.92612 6.67718"/>
</mask>
<path d="M9.6112 4.28478L10.2888 3.54932L10.2794 3.54064L10.2697 3.5322L9.6112 4.28478ZM9.36156 4.35239L8.43309 3.981L8.42169 4.0095L8.41206 4.03864L9.36156 4.35239ZM8.12376 5.98026L8.65227 6.82918L8.66622 6.8205L8.67987 6.81137L8.12376 5.98026ZM7.70769 6.1987L7.30904 5.28159L7.28445 5.29228L7.26047 5.30427L7.70769 6.1987ZM7.64007 6.14669L8.63002 6.28811L8.63215 6.27325L8.63382 6.25834L7.64007 6.14669ZM7.68168 5.67861L8.67954 5.74399L8.68168 5.71134V5.67861H7.68168ZM7.68168 5.6266L6.68374 5.56244L6.68168 5.59449V5.6266H7.68168ZM5.29448 0.2125L5.8043 -0.647809L5.79878 -0.651032L5.29448 0.2125ZM4.88361 0.00446515L4.4364 0.898892L4.46092 0.911153L4.48608 0.922051L4.88361 0.00446515ZM4.7796 0.129286L5.77955 0.119851L5.77917 0.0792178L5.77549 0.0387501L4.7796 0.129286ZM4.75879 0.508949L3.76586 0.390315L3.75879 0.449422V0.508949H4.75879ZM4.75879 0.51415L5.75297 0.621952L5.75879 0.568208V0.51415H4.75879ZM2.56923 3.70748L3.24639 4.44333L3.2501 4.43988L2.56923 3.70748ZM0.431672 6.31832L1.35249 6.70837L1.35489 6.7026L0.431672 6.31832ZM0 8.42987L-1.00002 8.42724L-0.999989 8.43463L0 8.42987ZM4.7692 14L4.61049 14.9873L4.97938 15.0466L5.29678 14.8495L4.7692 14ZM5.46091 12.4189H4.46088L4.46094 12.4271L5.46091 12.4189ZM5.4037 11.8832V10.8832H4.16933L4.42547 12.0908L5.4037 11.8832ZM5.96019 12.0965L5.39093 12.9187L5.40218 12.9263L5.96019 12.0965ZM6.67271 14L5.70696 13.7405L5.30648 15.2312L6.83065 14.9874L6.67271 14ZM11.4419 8.42987L12.4419 8.43385V8.42987H11.4419ZM9.6216 5.03891L10.3662 4.37136L9.36519 3.25488L8.71917 4.60808L9.6216 5.03891ZM6.10062 11.5712L5.60215 12.4381L5.60903 12.4421L5.61598 12.4459L6.10062 11.5712ZM4.7692 11.3632V10.3632H3.54939L3.78861 11.5593L4.7692 11.3632ZM4.89402 11.9873L3.91339 12.1834L3.9153 12.1925L4.89402 11.9873ZM4.87841 12.9546L3.91247 12.6959L3.90956 12.7067L3.90689 12.7177L4.87841 12.9546ZM4.62877 13.4435L4.42677 14.4229L4.95471 14.5318L5.33588 14.1506L4.62877 13.4435ZM0.520087 8.43507H-0.479935L-0.479891 8.44173L0.520087 8.43507ZM0.910152 6.52635L1.83179 6.91441L1.83213 6.91358L0.910152 6.52635ZM1.92432 5.06491L2.65134 5.75154L2.65386 5.74885L1.92432 5.06491ZM2.91249 4.10795L3.58571 4.84739L3.59209 4.84158L3.59837 4.83566L2.91249 4.10795ZM3.36496 3.68148L4.05086 4.4092L4.05577 4.40452L3.36496 3.68148ZM5.24247 0.800198L5.81882 -0.0170084L4.53181 -0.92469L4.25773 0.62617L5.24247 0.800198ZM7.11999 6.08428L6.12697 5.96623L6.12658 5.96966L7.11999 6.08428ZM10.2697 3.5322C9.60719 2.9525 8.70024 3.31311 8.43309 3.981L10.29 4.72378C10.1061 5.18363 9.44879 5.47143 8.9527 5.03736L10.2697 3.5322ZM8.41206 4.03864C8.26208 4.49251 7.96491 4.88333 7.56764 5.14916L8.67987 6.81137C9.4473 6.29786 10.0214 5.54289 10.3111 4.66614L8.41206 4.03864ZM7.59524 5.13134C7.50365 5.18836 7.40799 5.23858 7.30904 5.28159L8.10633 7.1158C8.29508 7.03376 8.47755 6.93796 8.65227 6.82918L7.59524 5.13134ZM7.26047 5.30427C7.6706 5.09921 8.05967 5.23935 8.26628 5.39677C8.47759 5.55777 8.68902 5.87511 8.63002 6.28811L6.65013 6.00527C6.58592 6.45468 6.81556 6.80582 7.05418 6.98763C7.28809 7.16584 7.71357 7.31379 8.1549 7.09313L7.26047 5.30427ZM8.63382 6.25834C8.65304 6.08727 8.66829 5.91577 8.67954 5.74399L6.68382 5.61323C6.67459 5.75411 6.66209 5.89474 6.64633 6.03504L8.63382 6.25834ZM8.68168 5.67861V5.6266H6.68168V5.67861H8.68168ZM8.67962 5.69077C8.90254 2.22372 7.23561 0.200399 5.80429 -0.647792L4.78468 1.07279C5.60013 1.55602 6.85608 2.88206 6.68374 5.56244L8.67962 5.69077ZM5.79878 -0.651032C5.63162 -0.74865 5.45877 -0.836169 5.28115 -0.913121L4.48608 0.922051C4.59043 0.967262 4.69198 1.01868 4.79019 1.07603L5.79878 -0.651032ZM5.33083 -0.889962C4.99467 -1.05804 4.65315 -1.01172 4.41385 -0.897476C4.20482 -0.79768 4.07521 -0.652517 4.00558 -0.55818C3.88291 -0.391987 3.75317 -0.116093 3.7837 0.219822L5.77549 0.0387501C5.79012 0.19965 5.7593 0.325025 5.7355 0.396806C5.70951 0.47516 5.67047 0.553999 5.61473 0.62952C5.56525 0.696553 5.45937 0.819613 5.27553 0.907382C5.06142 1.0096 4.74656 1.05397 4.4364 0.898892L5.33083 -0.889962ZM3.77964 0.138721C3.78044 0.222792 3.77583 0.306829 3.76586 0.390315L5.75173 0.627584C5.77186 0.459112 5.78115 0.289518 5.77955 0.119851L3.77964 0.138721ZM3.75879 0.508949V0.51415H5.75879V0.508949H3.75879ZM3.76462 0.406348C3.72081 0.81042 3.53963 1.19697 3.20937 1.62266C2.86815 2.06248 2.42038 2.48048 1.88835 2.97508L3.2501 4.43988C3.75305 3.97232 4.32985 3.44117 4.78957 2.84861C5.26024 2.24194 5.65636 1.5129 5.75297 0.621952L3.76462 0.406348ZM1.89207 2.97164C1.07574 3.72287 0.0336955 4.67218 -0.491544 5.93404L1.35489 6.7026C1.68259 5.91531 2.36724 5.25235 3.24638 4.44332L1.89207 2.97164ZM-0.489126 5.92828C-0.824049 6.71896 -0.997734 7.56855 -0.999997 8.42724L0.999997 8.43251C1.00156 7.84006 1.12139 7.25388 1.35247 6.70836L-0.489126 5.92828ZM-0.999989 8.43463C-0.992473 10.0144 -0.424373 11.5402 0.603104 12.7403L2.12232 11.4395C1.40298 10.5994 1.00525 9.53113 0.999989 8.42511L-0.999989 8.43463ZM0.603104 12.7403C1.63058 13.9403 3.05071 14.7366 4.61049 14.9873L4.9279 13.0127C3.83589 12.8371 2.84166 12.2796 2.12232 11.4395L0.603104 12.7403ZM5.29678 14.8495C6.22647 14.2721 6.46727 13.1904 6.46088 12.4107L4.46094 12.4271C4.46271 12.6423 4.42798 12.8265 4.37471 12.9587C4.32284 13.0875 4.26846 13.1338 4.24161 13.1505L5.29678 14.8495ZM6.46091 12.4189C6.46091 12.1622 6.43175 11.9106 6.38194 11.6757L4.42547 12.0908C4.44847 12.1992 4.46091 12.3116 4.46091 12.4189H6.46091ZM5.4037 12.8832C5.38058 12.8832 5.36205 12.8818 5.34868 12.8803C5.33521 12.8788 5.32524 12.877 5.31895 12.8757C5.30692 12.8731 5.30409 12.8716 5.31007 12.8738C5.31565 12.8759 5.32631 12.8803 5.34105 12.8881C5.35565 12.8958 5.37262 12.906 5.39098 12.9187L6.5294 11.2743C6.22837 11.0659 5.82305 10.8832 5.4037 10.8832V12.8832ZM5.40218 12.9263C5.53154 13.0133 5.63047 13.1386 5.68512 13.2846L7.5582 12.5834C7.35733 12.0468 6.9937 11.5864 6.51821 11.2667L5.40218 12.9263ZM5.68512 13.2846C5.73977 13.4306 5.74741 13.59 5.70696 13.7405L7.63847 14.2595C7.78714 13.7061 7.75907 13.1201 7.5582 12.5834L5.68512 13.2846ZM6.83065 14.9874C8.39117 14.7379 9.8122 13.9418 10.84 12.7413L9.32082 11.4406C8.60147 12.2807 7.60694 12.8379 6.51478 13.0126L6.83065 14.9874ZM10.84 12.7413C11.8679 11.5409 12.4356 10.0142 12.4419 8.43385L10.4419 8.42589C10.4375 9.53193 10.0402 10.6004 9.32082 11.4406L10.84 12.7413ZM12.4419 8.42987C12.4419 6.49604 11.6055 4.76242 10.2888 3.54932L8.93363 5.02023C9.86368 5.87708 10.4419 7.08716 10.4419 8.42987H12.4419ZM7.52696 14.2921C10.0638 13.5311 11.9218 11.1945 11.9218 8.42987H9.92182C9.92182 10.2732 8.68015 11.8581 6.95226 12.3765L7.52696 14.2921ZM11.9218 8.42987C11.9218 6.8731 11.3351 5.45204 10.3662 4.37136L8.87704 5.70645C9.53082 6.43567 9.92182 7.38621 9.92182 8.42987H11.9218ZM8.71917 4.60808C8.47395 5.12174 8.05022 5.52862 7.52704 5.75282L8.3148 7.59114C9.28434 7.17567 10.0696 6.42163 10.524 5.46973L8.71917 4.60808ZM8.24107 13.2479C8.19528 12.7195 8.02032 12.2105 7.73158 11.7656L6.05391 12.8543C6.16421 13.0243 6.23105 13.2188 6.24854 13.4206L8.24107 13.2479ZM7.73158 11.7656C7.44285 11.3207 7.04919 10.9535 6.58526 10.6965L5.61598 12.4459C5.79322 12.5441 5.9436 12.6844 6.05391 12.8543L7.73158 11.7656ZM6.59909 10.7043C6.2944 10.5291 5.87195 10.3632 5.4037 10.3632V12.3632C5.40255 12.3632 5.42295 12.3634 5.46499 12.3766C5.50606 12.3895 5.55384 12.4103 5.60215 12.4381L6.59909 10.7043ZM5.4037 10.3632H4.7692V12.3632H5.4037V10.3632ZM3.78861 11.5593L3.91344 12.1834L5.8746 11.7911L5.74978 11.167L3.78861 11.5593ZM3.9153 12.1925C3.95411 12.3776 3.94583 12.5713 3.91247 12.6959L5.84436 13.2134C5.96703 12.7554 5.96914 12.2418 5.87273 11.782L3.9153 12.1925ZM3.90689 12.7177C3.90223 12.7368 3.89758 12.7514 3.89374 12.7619C3.88989 12.7724 3.8871 12.7781 3.88633 12.7796C3.88554 12.7811 3.8872 12.7776 3.89242 12.7703C3.89762 12.763 3.90698 12.7511 3.92167 12.7364L5.33588 14.1506C5.60765 13.8788 5.7671 13.5312 5.84993 13.1916L3.90689 12.7177ZM4.83077 12.4641C3.90026 12.2722 3.0638 11.7667 2.46121 11.0322L0.91494 12.3007C1.80802 13.3893 3.04769 14.1385 4.42677 14.4229L4.83077 12.4641ZM2.46121 11.0322C1.85861 10.2976 1.52639 9.37849 1.52006 8.42841L-0.479891 8.44173C-0.470515 9.8498 0.021859 11.212 0.91494 12.3007L2.46121 11.0322ZM1.52009 8.43507C1.52009 7.90024 1.63067 7.39207 1.83179 6.91441L-0.0114835 6.1383C-0.309648 6.84644 -0.479913 7.61767 -0.479913 8.43507H1.52009ZM1.83213 6.91358C1.98616 6.54686 2.25245 6.17387 2.65133 5.75153L1.19731 4.37829C0.712039 4.8921 0.271016 5.46568 -0.0118303 6.13912L1.83213 6.91358ZM2.65386 5.74885C2.93805 5.44571 3.24199 5.16032 3.58571 4.84739L2.23926 3.36851C1.88606 3.69008 1.5347 4.01839 1.19478 4.38097L2.65386 5.74885ZM3.59837 4.83566L4.05085 4.40919L2.67907 2.95377L2.2266 3.38024L3.59837 4.83566ZM4.05577 4.40452C4.86346 3.63284 5.95105 2.53694 6.22722 0.974225L4.25773 0.62617C4.10743 1.47666 3.49954 2.16986 2.67416 2.95844L4.05577 4.40452ZM4.66613 1.6174C5.36165 2.10793 6.43624 3.36485 6.12698 5.96623L8.113 6.20233C8.51106 2.85392 7.09963 0.886302 5.81882 -0.0170084L4.66613 1.6174ZM6.12658 5.96966C6.06074 6.54023 6.31482 7.0663 6.71341 7.38653C7.1369 7.72678 7.74663 7.8528 8.33425 7.5901L7.51799 5.76425C7.57612 5.73827 7.659 5.72191 7.75188 5.7355C7.84049 5.74847 7.91313 5.78489 7.96604 5.8274C8.06038 5.90319 8.13242 6.034 8.1134 6.1989L6.12658 5.96966Z" fill="url(#paint0_linear_14_136)" mask="url(#path-1-inside-1_14_136)"/>
<defs>
<linearGradient id="paint0_linear_14_136" x1="0" y1="0" x2="14.3867" y2="9.57564" gradientUnits="userSpaceOnUse">
<stop offset="0.29" stop-color="#75CDFF"/>
<stop offset="0.709836" stop-color="#00A3FF"/>
</linearGradient>
</defs>
</svg>
