<svg width="36" height="36" viewBox="0 0 36 36" fill="none" xmlns="http://www.w3.org/2000/svg">
<path fill-rule="evenodd" clip-rule="evenodd" d="M0 0H2.25V33.75H36V36H0V0ZM33.3383 7.00425C33.4527 7.09787 33.5475 7.21312 33.6173 7.34342C33.6872 7.47371 33.7307 7.6165 33.7453 7.76361C33.7599 7.91072 33.7454 8.05927 33.7026 8.20076C33.6598 8.34226 33.5895 8.47393 33.4958 8.58825L23.3708 20.9633C23.2712 21.0847 23.1474 21.184 23.0072 21.2547C22.867 21.3254 22.7135 21.366 22.5567 21.3739C22.3999 21.3817 22.2431 21.3566 22.0966 21.3003C21.95 21.2439 21.8169 21.1574 21.7058 21.0465L15.885 15.2258L7.659 26.5365C7.47905 26.7653 7.21741 26.9155 6.92906 26.9554C6.64072 26.9954 6.34811 26.922 6.11274 26.7507C5.87736 26.5794 5.71755 26.3236 5.66687 26.0369C5.6162 25.7502 5.67861 25.4551 5.841 25.2135L14.841 12.8385C14.9365 12.7069 15.0594 12.5976 15.2013 12.5181C15.3431 12.4386 15.5005 12.3907 15.6626 12.3779C15.8247 12.3651 15.9877 12.3875 16.1403 12.4437C16.2929 12.5 16.4315 12.5886 16.5465 12.7035L22.4168 18.576L31.7543 7.16175C31.8479 7.04734 31.9631 6.9525 32.0934 6.88265C32.2237 6.81281 32.3665 6.76933 32.5136 6.7547C32.6607 6.74008 32.8093 6.75459 32.9508 6.79741C33.0923 6.84022 33.2239 6.91051 33.3383 7.00425Z" fill="#00D1FF"/>
</svg>
