<svg width="20" height="20" viewBox="0 0 20 20" fill="none" xmlns="http://www.w3.org/2000/svg">
<path d="M11.1259 11.6868L9.51889 10.3606C6.15303 7.90477 4.40242 5.25599 5.36187 1.98983C5.44876 1.69257 5.55578 1.40355 5.67834 1.12093V1.11727C5.67834 1.11727 5.91614 0.618794 5.39846 0.864831C3.84575 1.70799 2.53541 2.93552 1.59281 4.42996C0.650224 5.92439 0.10693 7.63573 0.0149232 9.4002C-0.106001 11.6513 0.510537 13.8805 1.77102 15.7496C2.27999 16.4643 2.90255 17.0909 3.61401 17.6045H3.61126C7.16004 20.2167 10.2039 18.842 10.2039 18.842H10.2067C10.9616 18.5234 11.6051 17.9883 12.0562 17.3043C12.5073 16.6203 12.7456 15.818 12.7411 14.9987C12.7446 14.3597 12.6005 13.7285 12.3202 13.1542C12.0399 12.58 11.6309 12.0781 11.125 11.6877L11.1259 11.6868Z" fill="url(#paint0_linear_2_37)"/>
<path d="M18.201 4.9958C17.1034 3.28452 15.5147 1.85494 13.6918 1.12873L13.1522 0.945798C12.5566 0.761689 11.9372 0.666156 11.3138 0.662262C9.33908 0.671408 7.74121 2.30494 7.74121 4.3208C7.74121 5.16043 8.01834 5.93238 8.48298 6.54702L8.25981 6.25434C8.36682 6.41348 8.48298 6.5708 8.61743 6.72994C9.1845 7.41592 9.98938 8.12842 11.0321 8.93696C13.5976 10.9217 15.2613 12.6833 15.3985 14.8665C15.4315 15.161 15.4516 15.462 15.4516 15.7665C15.4516 16.876 15.2101 18.0504 14.7985 18.8763H14.8022C14.8022 18.8763 14.6257 19.1992 14.7363 19.2934C14.793 19.3418 14.9156 19.3784 15.1296 19.2476C16.2788 18.4999 17.268 17.5315 18.04 16.3985C19.1777 14.7215 19.7988 12.7477 19.8263 10.7214C19.8567 8.69491 19.2916 6.70406 18.201 4.9958Z" fill="white"/>
<defs>
<linearGradient id="paint0_linear_2_37" x1="0" y1="0.7966" x2="17.5428" y2="10.6859" gradientUnits="userSpaceOnUse">
<stop offset="0.29" stop-color="#75CDFF"/>
<stop offset="0.709836" stop-color="#00A3FF"/>
</linearGradient>
</defs>
</svg>
