<svg width="51" height="34" viewBox="0 0 51 34" fill="none" xmlns="http://www.w3.org/2000/svg">
<path d="M2.83333 34C2.03056 34 1.35811 33.728 0.816 33.184C0.272 32.6419 0 31.9694 0 31.1667C0 30.3639 0.272 29.6914 0.816 29.1493C1.35811 28.6053 2.03056 28.3333 2.83333 28.3333H48.1667C48.9694 28.3333 49.6419 28.6053 50.184 29.1493C50.728 29.6914 51 30.3639 51 31.1667C51 31.9694 50.728 32.6419 50.184 33.184C49.6419 33.728 48.9694 34 48.1667 34H2.83333ZM2.83333 19.8333C2.03056 19.8333 1.35811 19.5613 0.816 19.0173C0.272 18.4752 0 17.8028 0 17C0 16.1972 0.272 15.5238 0.816 14.9798C1.35811 14.4377 2.03056 14.1667 2.83333 14.1667H48.1667C48.9694 14.1667 49.6419 14.4377 50.184 14.9798C50.728 15.5238 51 16.1972 51 17C51 17.8028 50.728 18.4752 50.184 19.0173C49.6419 19.5613 48.9694 19.8333 48.1667 19.8333H2.83333ZM2.83333 5.66667C2.03056 5.66667 1.35811 5.39561 0.816 4.8535C0.272 4.3095 0 3.63611 0 2.83333C0 2.03056 0.272 1.35717 0.816 0.813167C1.35811 0.271056 2.03056 0 2.83333 0H48.1667C48.9694 0 49.6419 0.271056 50.184 0.813167C50.728 1.35717 51 2.03056 51 2.83333C51 3.63611 50.728 4.3095 50.184 4.8535C49.6419 5.39561 48.9694 5.66667 48.1667 5.66667H2.83333Z" fill="white"/>
</svg>
