<svg width="22" height="26" viewBox="0 0 22 26" fill="none" xmlns="http://www.w3.org/2000/svg">
<path d="M10.9968 17V19.6667M3.49919 25H18.4944C19.1572 25 19.7929 24.719 20.2616 24.219C20.7303 23.7189 20.9936 23.0406 20.9936 22.3333V14.3333C20.9936 13.6261 20.7303 12.9478 20.2616 12.4477C19.7929 11.9476 19.1572 11.6667 18.4944 11.6667H3.49919C2.83637 11.6667 2.20069 11.9476 1.732 12.4477C1.26331 12.9478 1 13.6261 1 14.3333V22.3333C1 23.0406 1.26331 23.7189 1.732 24.219C2.20069 24.719 2.83637 25 3.49919 25ZM15.9952 11.6667V6.33333C15.9952 4.91885 15.4686 3.56229 14.5312 2.5621C13.5938 1.5619 12.3224 1 10.9968 1C9.67112 1 8.39976 1.5619 7.46238 2.5621C6.525 3.56229 5.99839 4.91885 5.99839 6.33333V11.6667H15.9952Z" stroke="#5E5C5C" stroke-width="2" stroke-linecap="round" stroke-linejoin="round"/>
</svg>
