<svg width="100" height="100" viewBox="0 0 100 100" fill="none" xmlns="http://www.w3.org/2000/svg">
<path d="M96.8874 12.125C97.4714 12.7108 97.7993 13.5042 97.7993 14.3313C97.7993 15.1584 97.4714 15.9517 96.8874 16.5375L90.3687 23.0625L77.8687 10.5625L84.3874 4.03752C84.9735 3.45167 85.7682 3.12256 86.5968 3.12256C87.4254 3.12256 88.2202 3.45167 88.8062 4.03752L96.8874 12.1188V12.125ZM85.9499 27.475L73.4499 14.975L30.8687 57.5625C30.5247 57.9064 30.2657 58.3259 30.1124 58.7875L25.0812 73.875C24.9899 74.1501 24.977 74.4451 25.0438 74.7271C25.1105 75.0091 25.2544 75.2669 25.4594 75.4718C25.6643 75.6768 25.9221 75.8206 26.2041 75.8874C26.4861 75.9542 26.7811 75.9413 27.0562 75.85L42.1437 70.8188C42.6047 70.6673 43.0241 70.4105 43.3687 70.0688L85.9499 27.475Z" fill="white"/>
<path fill-rule="evenodd" clip-rule="evenodd" d="M6.25 84.375C6.25 86.8614 7.23772 89.246 8.99587 91.0041C10.754 92.7623 13.1386 93.75 15.625 93.75H84.375C86.8614 93.75 89.246 92.7623 91.0041 91.0041C92.7623 89.246 93.75 86.8614 93.75 84.375V46.875C93.75 46.0462 93.4208 45.2513 92.8347 44.6653C92.2487 44.0792 91.4538 43.75 90.625 43.75C89.7962 43.75 89.0013 44.0792 88.4153 44.6653C87.8292 45.2513 87.5 46.0462 87.5 46.875V84.375C87.5 85.2038 87.1708 85.9987 86.5847 86.5847C85.9987 87.1708 85.2038 87.5 84.375 87.5H15.625C14.7962 87.5 14.0013 87.1708 13.4153 86.5847C12.8292 85.9987 12.5 85.2038 12.5 84.375V15.625C12.5 14.7962 12.8292 14.0013 13.4153 13.4153C14.0013 12.8292 14.7962 12.5 15.625 12.5H56.25C57.0788 12.5 57.8737 12.1708 58.4597 11.5847C59.0458 10.9987 59.375 10.2038 59.375 9.375C59.375 8.5462 59.0458 7.75134 58.4597 7.16529C57.8737 6.57924 57.0788 6.25 56.25 6.25H15.625C13.1386 6.25 10.754 7.23772 8.99587 8.99587C7.23772 10.754 6.25 13.1386 6.25 15.625V84.375Z" fill="white"/>
</svg>
