<svg width="14" height="18" viewBox="0 0 14 18" fill="none" xmlns="http://www.w3.org/2000/svg">
<path d="M11.0364 9.96338C10.8187 10.1933 10.6535 10.4921 10.5446 10.7939L10.2139 10.4635L10.3969 11.9114L10.7737 14.8927L8.02281 13.6133L8.01612 13.6102L8.00935 13.6073C7.68972 13.4699 7.34472 13.4016 6.9969 13.4067C6.64029 13.4072 6.27855 13.4737 5.97949 13.6136C5.97931 13.6137 5.97913 13.6138 5.97895 13.6138L3.22814 14.8928L3.60599 11.9095L3.60601 11.9095L3.60644 11.9059C3.64713 11.5648 3.59116 11.195 3.48369 10.8672C3.37651 10.5404 3.20324 10.2101 2.96778 9.96264C2.96751 9.96235 2.96723 9.96206 2.96695 9.96177L0.900273 7.77196L3.87393 7.20614C4.20999 7.14417 4.54446 6.97949 4.82363 6.77833C5.10357 6.57662 5.36657 6.31038 5.53385 6.00983L5.53396 6.00963L7.00338 3.36667L8.46869 6.00915L8.46906 6.00983C8.63623 6.31018 8.89906 6.57661 9.1786 6.77836C9.45694 6.97923 9.79093 7.14417 10.1265 7.20524L13.0973 7.77197L11.0371 9.96263C11.0369 9.96288 11.0367 9.96313 11.0364 9.96338Z" stroke="black"/>
</svg>
