<svg width="32" height="26" viewBox="0 0 32 26" fill="none" xmlns="http://www.w3.org/2000/svg">
<path d="M10.052 26.0007C22.128 26.0007 28.734 15.9947 28.734 7.33265C28.7367 7.05132 28.7327 6.76999 28.722 6.48865C30.0077 5.55714 31.1176 4.40456 32 3.08465C30.7982 3.6132 29.5253 3.96226 28.222 4.12065C29.5952 3.30007 30.6236 2.00868 31.116 0.486654C29.8266 1.2521 28.4144 1.78868 26.942 2.07265C25.9524 1.0187 24.6428 0.320489 23.2162 0.0861688C21.7895 -0.148152 20.3254 0.0944968 19.0507 0.776528C17.7759 1.45856 16.7616 2.54191 16.1649 3.85877C15.5682 5.17564 15.4224 6.65252 15.75 8.06065C13.1394 7.93038 10.5853 7.25248 8.25366 6.07098C5.92202 4.88949 3.86495 3.23081 2.216 1.20265C1.37916 2.64894 1.1239 4.35942 1.50201 5.98702C1.88013 7.61461 2.86329 9.0374 4.252 9.96665C3.21082 9.93301 2.19239 9.65339 1.28 9.15065V9.24065C1.28255 10.7554 1.80764 12.2229 2.76665 13.3954C3.72565 14.568 5.05984 15.3737 6.544 15.6767C5.98054 15.832 5.39846 15.9093 4.814 15.9067C4.40184 15.9109 3.99033 15.8727 3.586 15.7927C4.00479 17.0972 4.82155 18.238 5.92167 19.0547C7.02179 19.8715 8.35004 20.3232 9.72 20.3467C7.39221 22.1726 4.51849 23.1636 1.56 23.1607C1.0386 23.1646 0.517492 23.1345 0 23.0707C3.00284 24.9856 6.49053 26.0022 10.052 26.0007Z" fill="url(#paint0_linear_8_44)"/>
<defs>
<linearGradient id="paint0_linear_8_44" x1="0" y1="-0.000732422" x2="28.9642" y2="29.0295" gradientUnits="userSpaceOnUse">
<stop offset="0.29" stop-color="#75CDFF"/>
<stop offset="0.709836" stop-color="#00A3FF"/>
</linearGradient>
</defs>
</svg>
