<svg width="22" height="26" viewBox="0 0 22 26" fill="none" xmlns="http://www.w3.org/2000/svg">
<path d="M16.7143 6.33333C16.7143 7.74782 16.1122 9.10438 15.0406 10.1046C13.969 11.1048 12.5155 11.6667 11 11.6667C9.48448 11.6667 8.03103 11.1048 6.95939 10.1046C5.88775 9.10438 5.28571 7.74782 5.28571 6.33333C5.28571 4.91885 5.88775 3.56229 6.95939 2.5621C8.03103 1.5619 9.48448 1 11 1C12.5155 1 13.969 1.5619 15.0406 2.5621C16.1122 3.56229 16.7143 4.91885 16.7143 6.33333ZM11 15.6667C8.34784 15.6667 5.8043 16.65 3.92893 18.4003C2.05357 20.1507 1 22.5246 1 25H21C21 22.5246 19.9464 20.1507 18.0711 18.4003C16.1957 16.65 13.6522 15.6667 11 15.6667Z" stroke="#5E5C5C" stroke-width="2" stroke-linecap="round" stroke-linejoin="round"/>
</svg>
