<svg width="16" height="14" viewBox="0 0 16 14" fill="none" xmlns="http://www.w3.org/2000/svg">
<path d="M2.26798 0.608696H13.2245C13.5474 0.608696 13.857 0.736956 14.0853 0.965262C14.3136 1.19357 14.4419 1.50321 14.4419 1.82609V12.1739C14.4419 12.4968 14.3136 12.8064 14.0853 13.0347C13.857 13.263 13.5474 13.3913 13.2245 13.3913H2.26798C1.94511 13.3913 1.63546 13.263 1.40716 13.0347C1.17885 12.8064 1.05059 12.4968 1.05059 12.1739V1.82609C1.05059 1.15652 1.59842 0.608696 2.26798 0.608696ZM13.2245 0H2.26798C1.78367 0 1.3192 0.192391 0.976743 0.534848C0.634285 0.877306 0.441895 1.34178 0.441895 1.82609V12.1739C0.441895 12.6582 0.634285 13.1227 0.976743 13.4651C1.3192 13.8076 1.78367 14 2.26798 14H13.2245C13.7088 14 14.1733 13.8076 14.5157 13.4651C14.8582 13.1227 15.0506 12.6582 15.0506 12.1739V1.82609C15.0506 1.34178 14.8582 0.877306 14.5157 0.534848C14.1733 0.192391 13.7088 0 13.2245 0ZM12.0071 6.69565H3.48537V7.30435H12.0071V6.69565ZM3.48537 3.65217H12.0071V4.26087H3.48537V3.65217ZM12.0071 9.73913H3.48537V10.3478H12.0071V9.73913Z" fill="url(#paint0_linear_14_134)"/>
<defs>
<linearGradient id="paint0_linear_14_134" x1="0.441895" y1="0" x2="15.8329" y2="13.0794" gradientUnits="userSpaceOnUse">
<stop offset="0.29" stop-color="#75CDFF"/>
<stop offset="0.709836" stop-color="#00A3FF"/>
</linearGradient>
</defs>
</svg>
