<svg width="18" height="18" viewBox="0 0 18 18" fill="none" xmlns="http://www.w3.org/2000/svg">
<g clip-path="url(#clip0_16_137)">
<path d="M0 0H18V18H0V0Z" fill="#0D47A1"/>
<path d="M9 4V0H0V9H4V6L7 9H9V7L6 4H9Z" fill="#F8F9FD"/>
<path d="M3 1V0H1V1H0V3H1V9H3V3H9V1H3Z" fill="#EF5350"/>
<path d="M9 8L5 4H4L9 9V8Z" fill="#EF5350"/>
<path d="M7 13L6 13.5V14H5.5L5 15L4.5 14H4V13.5L3 13L4 12.5V12H4.5L5 11L5.5 12H6V12.5L7 13Z" fill="#F8F9FD"/>
<path d="M13.06 12.62L13.31 13.14L13.87 13.01L13.62 13.52L14.07 13.88L13.51 14V14.58L13.06 14.22L12.62 14.58V14L12.06 13.88L12.51 13.52L12.26 13.01L12.82 13.14L13.06 12.62ZM10.77 7.14001L11.01 7.66001L11.57 7.53001L11.32 8.04001L11.77 8.40001L11.21 8.53001V9.10001L10.77 8.74001L10.32 9.10001V8.53001L9.76001 8.40001L10.21 8.04001L9.96001 7.53001L10.52 7.66001L10.77 7.14001ZM13.06 4.01001L13.31 4.53001L13.87 4.40001L13.62 4.91001L14.07 5.27001L13.51 5.39001V5.97001L13.06 5.61001L12.62 5.97001V5.39001L12.06 5.27001L12.51 4.91001L12.26 4.40001L12.82 4.53001L13.06 4.01001ZM15.07 6.36001L15.32 6.88001L15.88 6.75001L15.63 7.26001L16.07 7.62001L15.52 7.74001V8.32001L15.07 7.96001L14.62 8.32001V7.74001L14.07 7.62001L14.52 7.26001L14.27 6.75001L14.82 6.88001L15.07 6.36001ZM13.64 9.10001L13.84 9.70001H14.46L13.96 10.07L14.15 10.67L13.64 10.29L13.13 10.66L13.33 10.06L12.81 9.70001H13.44L13.64 9.10001Z" fill="#F8F9FD"/>
</g>
<defs>
<clipPath id="clip0_16_137">
<rect width="18" height="18" rx="9" fill="white"/>
</clipPath>
</defs>
</svg>
