<svg width="18" height="18" viewBox="0 0 18 18" fill="none" xmlns="http://www.w3.org/2000/svg">
<g clip-path="url(#clip0_16_152)">
<path d="M0 0H18V18H0V0Z" fill="#1565C0"/>
<path d="M8.95 2L9.32 3.14H10.52L9.55 3.84L9.92 4.98L8.95 4.28L7.99 4.98L8.35 3.85L7.39 3.15H8.59L8.94 2H8.95ZM4.04 4.04L5.11 4.58L5.95 3.74L5.77 4.92L6.83 5.46L5.65 5.65L5.46 6.83L4.92 5.77L3.74 5.95L4.58 5.11L4.04 4.04ZM2 8.95L3.14 8.58V7.38L3.84 8.35L4.99 8L4.29 8.96L4.99 9.93L3.86 9.56L3.16 10.53V9.33L2 8.95ZM4.04 13.86L4.58 12.8L3.74 11.95L4.92 12.14L5.46 11.07L5.65 12.26L6.83 12.44L5.77 12.99L5.95 14.17L5.11 13.32L4.04 13.86ZM8.95 15.9L8.58 14.76H7.38L8.35 14.06L8 12.92L8.96 13.62L9.93 12.92L9.56 14.06L10.53 14.76H9.33L8.96 15.9H8.95ZM13.86 13.86L12.8 13.32L11.95 14.17L12.14 12.99L11.07 12.44L12.26 12.26L12.44 11.07L12.99 12.14L14.17 11.95L13.32 12.8L13.86 13.86ZM15.9 8.95L14.76 9.32V10.52L14.06 9.55L12.92 9.92L13.62 8.95L12.92 7.99L14.06 8.35L14.76 7.39V8.59L15.9 8.95ZM13.86 4.04L13.32 5.11L14.17 5.95L12.99 5.77L12.44 6.83L12.26 5.65L11.07 5.46L12.14 4.92L11.95 3.74L12.8 4.58L13.86 4.04Z" fill="#FDD835"/>
</g>
<defs>
<clipPath id="clip0_16_152">
<rect width="18" height="18" rx="9" fill="white"/>
</clipPath>
</defs>
</svg>
