<svg width="18" height="18" viewBox="0 0 18 18" fill="none" xmlns="http://www.w3.org/2000/svg">
<g clip-path="url(#clip0_16_155)">
<path d="M0 0H18V18H0V0Z" fill="white"/>
<path d="M7 0H1L7 5.5V0ZM11 0V6L17.5 0H11ZM18 4.5L15 7H18V4.5ZM18 11H14L18 14.5V11ZM17 18L11 12.5V18H17ZM7 18V12L0.5 18H7ZM0 13.5L3 11H0V13.5ZM0 7H4L0 3.5V7Z" fill="#0D47A1"/>
<path d="M7 7L-6.5 -5V-2.7L5 7H7ZM8 8V0H10V8H18V10H10V18H8V10H0V8H8ZM-9 23L5 11H7L-6.5 23H-9ZM11 7L23 -4H25.2L13 7H11ZM13 11H11L22.5 21V19L13 11Z" fill="#EF5350"/>
</g>
<defs>
<clipPath id="clip0_16_155">
<rect width="18" height="18" rx="9" fill="white"/>
</clipPath>
</defs>
</svg>
