<svg width="18" height="18" viewBox="0 0 18 18" fill="none" xmlns="http://www.w3.org/2000/svg">
<g clip-path="url(#clip0_16_159)">
<path d="M0 18H18V0H0V18Z" fill="#F0F3FA"/>
<path d="M9 5C10.0609 5 11.0783 5.42143 11.8284 6.17157C12.5786 6.92172 13 7.93913 13 9C13 10.0609 12.5786 11.0783 11.8284 11.8284C11.0783 12.5786 10.0609 13 9 13C7.93913 13 6.92172 12.5786 6.17157 11.8284C5.42143 11.0783 5 10.0609 5 9C5 7.93913 5.42143 6.92172 6.17157 6.17157C6.92172 5.42143 7.93913 5 9 5Z" fill="#F7525F"/>
<path fill-rule="evenodd" clip-rule="evenodd" d="M9 17.5C10.1162 17.5 11.2215 17.2801 12.2528 16.853C13.2841 16.4258 14.2211 15.7997 15.0104 15.0104C15.7997 14.2211 16.4258 13.2841 16.853 12.2528C17.2801 11.2215 17.5 10.1162 17.5 9C17.5 7.88376 17.2801 6.77846 16.853 5.74719C16.4258 4.71592 15.7997 3.77889 15.0104 2.98959C14.2211 2.20029 13.2841 1.57419 12.2528 1.14702C11.2215 0.719859 10.1162 0.5 9 0.5C6.74566 0.5 4.58365 1.39553 2.98959 2.98959C1.39553 4.58365 0.5 6.74566 0.5 9C0.5 11.2543 1.39553 13.4163 2.98959 15.0104C4.58365 16.6045 6.74566 17.5 9 17.5ZM9 18C11.3869 18 13.6761 17.0518 15.364 15.364C17.0518 13.6761 18 11.3869 18 9C18 6.61305 17.0518 4.32387 15.364 2.63604C13.6761 0.948212 11.3869 0 9 0C6.61305 0 4.32387 0.948212 2.63604 2.63604C0.948212 4.32387 0 6.61305 0 9C0 11.3869 0.948212 13.6761 2.63604 15.364C4.32387 17.0518 6.61305 18 9 18Z" fill="#E0E3EB"/>
</g>
<defs>
<clipPath id="clip0_16_159">
<rect width="18" height="18" rx="9" fill="white"/>
</clipPath>
</defs>
</svg>
