<svg width="18" height="18" viewBox="0 0 18 18" fill="none" xmlns="http://www.w3.org/2000/svg">
<g clip-path="url(#clip0_16_163)">
<path d="M0 18H18V0H0V18Z" fill="#0D47A1"/>
<path d="M11 8.13L11.25 8.65L11.81 8.52L11.56 9.03L12.01 9.39L11.45 9.51V10.09L11 9.73L10.56 10.09V9.5L10 9.4L10.45 9.04L10.2 8.53L10.76 8.66L11 8.14V8.13ZM13 12.13L13.25 12.65L13.81 12.52L13.56 13.03L14.01 13.39L13.45 13.51V14.09L13 13.73L12.56 14.09V13.51L12 13.4L12.45 13.04L12.2 12.53L12.76 12.66L13 12.14V12.13ZM13.3 5L13.55 5.52L14.11 5.39L13.86 5.9L14.3 6.26L13.75 6.38V6.96L13.3 6.6L12.85 6.96V6.38L12.3 6.26L12.75 5.9L12.5 5.39L13.05 5.52L13.3 5ZM15.3 8.35L15.55 8.86L16.11 8.74L15.86 9.25L16.31 9.61L15.75 9.73V10.3L15.31 9.95L14.86 10.3V9.73L14.3 9.61L14.75 9.25L14.5 8.74L15.06 8.86L15.31 8.35H15.3Z" fill="#EF5350"/>
<path d="M9 4V0H0V9H4V6L7 9H9V7L6 4H9Z" fill="#F8F9FD"/>
<path d="M3 1V0H1V1H0V3H1V9H3V3H9V1H3Z" fill="#EF5350"/>
<path d="M9 8L5 4H4L9 9V8Z" fill="#EF5350"/>
</g>
<defs>
<clipPath id="clip0_16_163">
<rect width="18" height="18" rx="9" fill="white"/>
</clipPath>
</defs>
</svg>
