<svg width="18" height="18" viewBox="0 0 18 18" fill="none" xmlns="http://www.w3.org/2000/svg">
<g clip-path="url(#clip0_16_169)">
<path d="M0 0H18V18H0V0Z" fill="#F8F9FD"/>
<path d="M11 4H18V0H11V4ZM0 18H18V14H0V18ZM11 11H18V7H11V11Z" fill="#EF5350"/>
<path d="M0 0H11V11H0V0Z" fill="#1E88E9"/>
<path d="M2.42002 1.22C2.4276 1.20531 2.43907 1.19299 2.45318 1.18439C2.46729 1.17578 2.4835 1.17123 2.50002 1.17123C2.51655 1.17123 2.53276 1.17578 2.54687 1.18439C2.56098 1.19299 2.57245 1.20531 2.58002 1.22L2.85002 1.93C2.86002 1.97 2.90002 1.99 2.93002 1.99L3.69002 2.03C3.77002 2.03 3.80002 2.13 3.74002 2.19L3.14002 2.66C3.12697 2.67269 3.11806 2.68904 3.11449 2.7069C3.11092 2.72475 3.11285 2.74327 3.12002 2.76L3.32002 3.48C3.32611 3.49826 3.32619 3.51799 3.32024 3.5363C3.31428 3.55461 3.30262 3.57052 3.28696 3.58171C3.27129 3.5929 3.25246 3.59877 3.23321 3.59846C3.21396 3.59816 3.19532 3.59169 3.18002 3.58L2.55002 3.17C2.53522 3.16011 2.51782 3.15484 2.50002 3.15484C2.48222 3.15484 2.46482 3.16011 2.45002 3.17L1.82002 3.58C1.80473 3.59169 1.78608 3.59816 1.76684 3.59846C1.74759 3.59877 1.72875 3.5929 1.71309 3.58171C1.69743 3.57052 1.68576 3.55461 1.67981 3.5363C1.67386 3.51799 1.67393 3.49826 1.68002 3.48L1.88002 2.75C1.88604 2.73228 1.88638 2.71313 1.88101 2.69521C1.87563 2.67729 1.8648 2.66148 1.85002 2.65L1.26002 2.19C1.2459 2.17868 1.23552 2.16336 1.23023 2.14604C1.22495 2.12873 1.22502 2.11022 1.23042 2.09294C1.23582 2.07566 1.2463 2.06041 1.2605 2.04918C1.27471 2.03795 1.29196 2.03127 1.31002 2.03L2.07002 1.99C2.10002 1.99 2.14002 1.97 2.15002 1.93L2.42002 1.23V1.22ZM2.42002 4.22C2.4276 4.20531 2.43907 4.19299 2.45318 4.18439C2.46729 4.17578 2.4835 4.17123 2.50002 4.17123C2.51655 4.17123 2.53276 4.17578 2.54687 4.18439C2.56098 4.19299 2.57245 4.20531 2.58002 4.22L2.85002 4.93C2.86002 4.97 2.90002 4.99 2.93002 4.99L3.69002 5.03C3.77002 5.03 3.80002 5.13 3.74002 5.19L3.14002 5.66C3.12697 5.67269 3.11806 5.68904 3.11449 5.7069C3.11092 5.72475 3.11285 5.74327 3.12002 5.76L3.32002 6.48C3.32611 6.49826 3.32619 6.51799 3.32024 6.5363C3.31428 6.55461 3.30262 6.57052 3.28696 6.58171C3.27129 6.5929 3.25246 6.59877 3.23321 6.59846C3.21396 6.59816 3.19532 6.59169 3.18002 6.58L2.55002 6.17C2.53522 6.16011 2.51782 6.15484 2.50002 6.15484C2.48222 6.15484 2.46482 6.16011 2.45002 6.17L1.82002 6.58C1.80473 6.59169 1.78608 6.59816 1.76684 6.59846C1.74759 6.59877 1.72875 6.5929 1.71309 6.58171C1.69743 6.57052 1.68576 6.55461 1.67981 6.5363C1.67386 6.51799 1.67393 6.49826 1.68002 6.48L1.88002 5.75C1.88604 5.73228 1.88638 5.71313 1.88101 5.69521C1.87563 5.67729 1.8648 5.66148 1.85002 5.65L1.26002 5.19C1.2459 5.17868 1.23552 5.16336 1.23023 5.14604C1.22495 5.12873 1.22502 5.11022 1.23042 5.09294C1.23582 5.07566 1.2463 5.06041 1.2605 5.04918C1.27471 5.03795 1.29196 5.03127 1.31002 5.03L2.07002 4.99C2.10002 4.99 2.14002 4.97 2.15002 4.93L2.42002 4.23V4.22ZM2.42002 7.22C2.4276 7.20531 2.43907 7.19299 2.45318 7.18439C2.46729 7.17578 2.4835 7.17123 2.50002 7.17123C2.51655 7.17123 2.53276 7.17578 2.54687 7.18439C2.56098 7.19299 2.57245 7.20531 2.58002 7.22L2.85002 7.93C2.86002 7.97 2.90002 7.99 2.93002 7.99L3.69002 8.03C3.77002 8.03 3.80002 8.13 3.74002 8.19L3.14002 8.66C3.12697 8.67269 3.11806 8.68904 3.11449 8.7069C3.11092 8.72475 3.11285 8.74327 3.12002 8.76L3.32002 9.48C3.32611 9.49826 3.32619 9.51799 3.32024 9.5363C3.31428 9.55461 3.30262 9.57052 3.28696 9.58171C3.27129 9.5929 3.25246 9.59877 3.23321 9.59846C3.21396 9.59816 3.19532 9.59169 3.18002 9.58L2.55002 9.17C2.53522 9.16011 2.51782 9.15484 2.50002 9.15484C2.48222 9.15484 2.46482 9.16011 2.45002 9.17L1.82002 9.58C1.80473 9.59169 1.78608 9.59816 1.76684 9.59846C1.74759 9.59877 1.72875 9.5929 1.71309 9.58171C1.69743 9.57052 1.68576 9.55461 1.67981 9.5363C1.67386 9.51799 1.67393 9.49826 1.68002 9.48L1.88002 8.75C1.88604 8.73228 1.88638 8.71313 1.88101 8.69521C1.87563 8.67729 1.8648 8.66148 1.85002 8.65L1.26002 8.19C1.2459 8.17868 1.23552 8.16336 1.23023 8.14604C1.22495 8.12872 1.22502 8.11022 1.23042 8.09294C1.23582 8.07566 1.2463 8.06041 1.2605 8.04918C1.27471 8.03795 1.29196 8.03127 1.31002 8.03L2.07002 7.99C2.10002 7.99 2.14002 7.97 2.15002 7.93L2.42002 7.23V7.22ZM5.42002 1.22C5.4276 1.20531 5.43907 1.19299 5.45318 1.18439C5.46729 1.17578 5.4835 1.17123 5.50002 1.17123C5.51655 1.17123 5.53276 1.17578 5.54687 1.18439C5.56098 1.19299 5.57245 1.20531 5.58002 1.22L5.85002 1.93C5.86002 1.97 5.90002 1.99 5.93002 1.99L6.69002 2.03C6.77002 2.03 6.80002 2.13 6.74002 2.19L6.14002 2.66C6.12697 2.67269 6.11806 2.68904 6.11449 2.7069C6.11092 2.72475 6.11285 2.74327 6.12002 2.76L6.32002 3.48C6.32611 3.49826 6.32619 3.51799 6.32024 3.5363C6.31428 3.55461 6.30262 3.57052 6.28696 3.58171C6.27129 3.5929 6.25246 3.59877 6.23321 3.59846C6.21396 3.59816 6.19532 3.59169 6.18002 3.58L5.55002 3.17C5.53522 3.16011 5.51782 3.15484 5.50002 3.15484C5.48222 3.15484 5.46482 3.16011 5.45002 3.17L4.82002 3.58C4.80473 3.59169 4.78608 3.59816 4.76684 3.59846C4.74759 3.59877 4.72875 3.5929 4.71309 3.58171C4.69743 3.57052 4.68576 3.55461 4.67981 3.5363C4.67386 3.51799 4.67393 3.49826 4.68002 3.48L4.88002 2.75C4.88604 2.73228 4.88638 2.71313 4.88101 2.69521C4.87563 2.67729 4.8648 2.66148 4.85002 2.65L4.26002 2.19C4.2459 2.17868 4.23552 2.16336 4.23023 2.14604C4.22495 2.12873 4.22502 2.11022 4.23042 2.09294C4.23582 2.07566 4.2463 2.06041 4.2605 2.04918C4.27471 2.03795 4.29196 2.03127 4.31002 2.03L5.07002 1.99C5.10002 1.99 5.14002 1.97 5.15002 1.93L5.42002 1.23V1.22ZM5.42002 4.22C5.4276 4.20531 5.43907 4.19299 5.45318 4.18439C5.46729 4.17578 5.4835 4.17123 5.50002 4.17123C5.51655 4.17123 5.53276 4.17578 5.54687 4.18439C5.56098 4.19299 5.57245 4.20531 5.58002 4.22L5.85002 4.93C5.86002 4.97 5.90002 4.99 5.93002 4.99L6.69002 5.03C6.77002 5.03 6.80002 5.13 6.74002 5.19L6.14002 5.66C6.12697 5.67269 6.11806 5.68904 6.11449 5.7069C6.11092 5.72475 6.11285 5.74327 6.12002 5.76L6.32002 6.48C6.32611 6.49826 6.32619 6.51799 6.32024 6.5363C6.31428 6.55461 6.30262 6.57052 6.28696 6.58171C6.27129 6.5929 6.25246 6.59877 6.23321 6.59846C6.21396 6.59816 6.19532 6.59169 6.18002 6.58L5.55002 6.17C5.53522 6.16011 5.51782 6.15484 5.50002 6.15484C5.48222 6.15484 5.46482 6.16011 5.45002 6.17L4.82002 6.58C4.80473 6.59169 4.78608 6.59816 4.76684 6.59846C4.74759 6.59877 4.72875 6.5929 4.71309 6.58171C4.69743 6.57052 4.68576 6.55461 4.67981 6.5363C4.67386 6.51799 4.67393 6.49826 4.68002 6.48L4.88002 5.75C4.88604 5.73228 4.88638 5.71313 4.88101 5.69521C4.87563 5.67729 4.8648 5.66148 4.85002 5.65L4.26002 5.19C4.2459 5.17868 4.23552 5.16336 4.23023 5.14604C4.22495 5.12873 4.22502 5.11022 4.23042 5.09294C4.23582 5.07566 4.2463 5.06041 4.2605 5.04918C4.27471 5.03795 4.29196 5.03127 4.31002 5.03L5.07002 4.99C5.10002 4.99 5.14002 4.97 5.15002 4.93L5.42002 4.23V4.22ZM5.42002 7.22C5.4276 7.20531 5.43907 7.19299 5.45318 7.18439C5.46729 7.17578 5.4835 7.17123 5.50002 7.17123C5.51655 7.17123 5.53276 7.17578 5.54687 7.18439C5.56098 7.19299 5.57245 7.20531 5.58002 7.22L5.85002 7.93C5.86002 7.97 5.90002 7.99 5.93002 7.99L6.69002 8.03C6.77002 8.03 6.80002 8.13 6.74002 8.19L6.14002 8.66C6.12697 8.67269 6.11806 8.68904 6.11449 8.7069C6.11092 8.72475 6.11285 8.74327 6.12002 8.76L6.32002 9.48C6.32611 9.49826 6.32619 9.51799 6.32024 9.5363C6.31428 9.55461 6.30262 9.57052 6.28696 9.58171C6.27129 9.5929 6.25246 9.59877 6.23321 9.59846C6.21396 9.59816 6.19532 9.59169 6.18002 9.58L5.55002 9.17C5.53522 9.16011 5.51782 9.15484 5.50002 9.15484C5.48222 9.15484 5.46482 9.16011 5.45002 9.17L4.82002 9.58C4.80473 9.59169 4.78608 9.59816 4.76684 9.59846C4.74759 9.59877 4.72875 9.5929 4.71309 9.58171C4.69743 9.57052 4.68576 9.55461 4.67981 9.5363C4.67386 9.51799 4.67393 9.49826 4.68002 9.48L4.88002 8.75C4.88604 8.73228 4.88638 8.71313 4.88101 8.69521C4.87563 8.67729 4.8648 8.66148 4.85002 8.65L4.26002 8.19C4.2459 8.17868 4.23552 8.16336 4.23023 8.14604C4.22495 8.12872 4.22502 8.11022 4.23042 8.09294C4.23582 8.07566 4.2463 8.06041 4.2605 8.04918C4.27471 8.03795 4.29196 8.03127 4.31002 8.03L5.07002 7.99C5.10002 7.99 5.14002 7.97 5.15002 7.93L5.42002 7.23V7.22ZM8.42002 1.22C8.4276 1.20531 8.43907 1.19299 8.45318 1.18439C8.46729 1.17578 8.4835 1.17123 8.50002 1.17123C8.51655 1.17123 8.53276 1.17578 8.54687 1.18439C8.56098 1.19299 8.57245 1.20531 8.58002 1.22L8.85002 1.93C8.86002 1.97 8.90002 1.99 8.93002 1.99L9.69002 2.03C9.77002 2.03 9.80002 2.13 9.74002 2.19L9.14002 2.66C9.12697 2.67269 9.11806 2.68904 9.11449 2.7069C9.11092 2.72475 9.11285 2.74327 9.12002 2.76L9.32002 3.48C9.32611 3.49826 9.32619 3.51799 9.32024 3.5363C9.31428 3.55461 9.30262 3.57052 9.28696 3.58171C9.27129 3.5929 9.25246 3.59877 9.23321 3.59846C9.21396 3.59816 9.19532 3.59169 9.18002 3.58L8.55002 3.17C8.53522 3.16011 8.51782 3.15484 8.50002 3.15484C8.48222 3.15484 8.46482 3.16011 8.45002 3.17L7.82002 3.58C7.80473 3.59169 7.78608 3.59816 7.76684 3.59846C7.74759 3.59877 7.72875 3.5929 7.71309 3.58171C7.69743 3.57052 7.68576 3.55461 7.67981 3.5363C7.67386 3.51799 7.67393 3.49826 7.68002 3.48L7.88002 2.75C7.88604 2.73228 7.88638 2.71313 7.88101 2.69521C7.87563 2.67729 7.8648 2.66148 7.85002 2.65L7.26002 2.19C7.2459 2.17868 7.23552 2.16336 7.23023 2.14604C7.22495 2.12873 7.22502 2.11022 7.23042 2.09294C7.23582 2.07566 7.2463 2.06041 7.2605 2.04918C7.27471 2.03795 7.29196 2.03127 7.31002 2.03L8.07002 1.99C8.10002 1.99 8.14002 1.97 8.15002 1.93L8.42002 1.23V1.22ZM8.42002 4.22C8.4276 4.20531 8.43907 4.19299 8.45318 4.18439C8.46729 4.17578 8.4835 4.17123 8.50002 4.17123C8.51655 4.17123 8.53276 4.17578 8.54687 4.18439C8.56098 4.19299 8.57245 4.20531 8.58002 4.22L8.85002 4.93C8.86002 4.97 8.90002 4.99 8.93002 4.99L9.69002 5.03C9.77002 5.03 9.80002 5.13 9.74002 5.19L9.14002 5.66C9.12697 5.67269 9.11806 5.68904 9.11449 5.7069C9.11092 5.72475 9.11285 5.74327 9.12002 5.76L9.32002 6.48C9.32611 6.49826 9.32619 6.51799 9.32024 6.5363C9.31428 6.55461 9.30262 6.57052 9.28696 6.58171C9.27129 6.5929 9.25246 6.59877 9.23321 6.59846C9.21396 6.59816 9.19532 6.59169 9.18002 6.58L8.55002 6.17C8.53522 6.16011 8.51782 6.15484 8.50002 6.15484C8.48222 6.15484 8.46482 6.16011 8.45002 6.17L7.82002 6.58C7.80473 6.59169 7.78608 6.59816 7.76684 6.59846C7.74759 6.59877 7.72875 6.5929 7.71309 6.58171C7.69743 6.57052 7.68576 6.55461 7.67981 6.5363C7.67386 6.51799 7.67393 6.49826 7.68002 6.48L7.88002 5.75C7.88604 5.73228 7.88638 5.71313 7.88101 5.69521C7.87563 5.67729 7.8648 5.66148 7.85002 5.65L7.26002 5.19C7.2459 5.17868 7.23552 5.16336 7.23023 5.14604C7.22495 5.12873 7.22502 5.11022 7.23042 5.09294C7.23582 5.07566 7.2463 5.06041 7.2605 5.04918C7.27471 5.03795 7.29196 5.03127 7.31002 5.03L8.07002 4.99C8.10002 4.99 8.14002 4.97 8.15002 4.93L8.42002 4.23V4.22ZM8.42002 7.22C8.4276 7.20531 8.43907 7.19299 8.45318 7.18439C8.46729 7.17578 8.4835 7.17123 8.50002 7.17123C8.51655 7.17123 8.53276 7.17578 8.54687 7.18439C8.56098 7.19299 8.57245 7.20531 8.58002 7.22L8.85002 7.93C8.86002 7.97 8.90002 7.99 8.93002 7.99L9.69002 8.03C9.77002 8.03 9.80002 8.13 9.74002 8.19L9.14002 8.66C9.12697 8.67269 9.11806 8.68904 9.11449 8.7069C9.11092 8.72475 9.11285 8.74327 9.12002 8.76L9.32002 9.48C9.32611 9.49826 9.32619 9.51799 9.32024 9.5363C9.31428 9.55461 9.30262 9.57052 9.28696 9.58171C9.27129 9.5929 9.25246 9.59877 9.23321 9.59846C9.21396 9.59816 9.19532 9.59169 9.18002 9.58L8.55002 9.17C8.53522 9.16011 8.51782 9.15484 8.50002 9.15484C8.48222 9.15484 8.46482 9.16011 8.45002 9.17L7.82002 9.58C7.80473 9.59169 7.78608 9.59816 7.76684 9.59846C7.74759 9.59877 7.72875 9.5929 7.71309 9.58171C7.69743 9.57052 7.68576 9.55461 7.67981 9.5363C7.67386 9.51799 7.67393 9.49826 7.68002 9.48L7.88002 8.75C7.88604 8.73228 7.88638 8.71313 7.88101 8.69521C7.87563 8.67729 7.8648 8.66148 7.85002 8.65L7.26002 8.19C7.2459 8.17868 7.23552 8.16336 7.23023 8.14604C7.22495 8.12872 7.22502 8.11022 7.23042 8.09294C7.23582 8.07566 7.2463 8.06041 7.2605 8.04918C7.27471 8.03795 7.29196 8.03127 7.31002 8.03L8.07002 7.99C8.10002 7.99 8.14002 7.97 8.15002 7.93L8.42002 7.23V7.22Z" fill="#F8F9FD"/>
</g>
<defs>
<clipPath id="clip0_16_169">
<rect width="18" height="18" rx="9" fill="white"/>
</clipPath>
</defs>
</svg>
